<svg xmlns="http://www.w3.org/2000/svg" viewBox="0 0 40 40"><rect fill="#ebebeb" height="40" rx="20" width="40"></rect><path d="m20.75 11.5c.7908 0 1.4386.6119 1.4959 1.3881l.0041.1119.0007 6.5735c.062.0556.1209.1145.1764.1766l3.5729-.0001v-2.25h-2.25c-.4818 0-.8303-.4443-.7347-.9014l.0232-.0858 1.5-4.5c.0928-.2784.3381-.4744.6245-.5078l.087-.005h3c.2935 0 .557.1707.6792.4319l.0323.0809 1.5 4.5c.1524.4571-.1589.9283-.6228.9821l-.0887.0051h-2.25v2.25h3.75c.3846 0 .7016.2895.745.6625l.005.0875v9h-1.5v-2.25h-7.5v2.25h-1.5v-2.25h-12v2.25h-1.5v-8.25c0-.6664.28972-1.2652.75007-1.6771l-.00007-6.5729c0-.7908.61191-1.4386 1.3881-1.4959l.1119-.0041zm9.75 9.75h-7.5v4.5h7.5zm-9.75-.75h-10.5c-.38463 0-.70163.2895-.74495.6625l-.00505.0875v4.5h12v-4.5c0-.355-.2467-.6525-.578-.7302l-.0845-.0148zm6 2.25c.4142 0 .75.3358.75.75s-.3358.75-.75.75-.75-.3358-.75-.75.3358-.75.75-.75zm-6-9.75h-10.5v6h1.5v-2.25c0-.7908.6119-1.4386 1.3881-1.4959l.1119-.0041h4.5c.7908 0 1.4386.6119 1.4959 1.3881l.0041.1119v2.25h1.5zm-3 3.75h-4.5v2.25h4.5zm9.9592-3.75h-1.9192l-.9998 3h3.9188z" fill="#222"></path></svg>