<svg xmlns="http://www.w3.org/2000/svg" viewBox="0 0 32 32" aria-hidden="true" role="presentation" focusable="false" style="display: block; height: 24px; width: 24px; fill: currentcolor;"><path d="m17.98 1.57.14.14 13.59 13.58-1.42 1.42L29 15.4V28a2 2 0 0 1-1.85 2H5a2 2 0 0 1-2-1.85V15.4l-1.3 1.3-1.4-1.42L13.87 1.71a3 3 0 0 1 4.1-.14zM11 17.93a2 2 0 0 0-1 3.73v2.35A6 6 0 0 0 5.32 28h11.36A6 6 0 0 0 12 24.01v-2.35a2 2 0 0 0-1-3.73zm10 0a2 2 0 0 0-1 3.73v2.35c-.95.16-1.84.55-2.6 1.12.63.84 1.1 1.82 1.37 2.87h7.91A6 6 0 0 0 22 24.01v-2.35a2 2 0 0 0-1-3.73zm-4.94-15.1h-.12a1 1 0 0 0-.55.2l-.1.1L5 13.4v11.23a8.02 8.02 0 0 1 2.96-2.11 4 4 0 1 1 6.08 0A8 8 0 0 1 16 23.68c.6-.47 1.25-.86 1.96-1.15a4 4 0 1 1 6.08 0 8.02 8.02 0 0 1 2.96 2.1V13.43L16.7 3.12a1 1 0 0 0-.64-.29z"></path></svg>